<svg width="70" height="70" viewBox="0 0 70 70" fill="none" xmlns="http://www.w3.org/2000/svg">
<path d="M20.8932 29.5433L25.6667 34.3168V40.8335C25.6668 41.045 25.7242 41.2524 25.833 41.4338L29.1323 46.9326L26.8398 68.7113C26.8227 68.8739 26.8399 69.0383 26.8904 69.1939C26.9409 69.3494 27.0236 69.4926 27.133 69.6141C27.2424 69.7356 27.3761 69.8328 27.5255 69.8993C27.6748 69.9658 27.8365 70.0002 28 70.0002H39.6667C39.9761 70.0002 40.2729 69.8773 40.4917 69.6585C40.7105 69.4397 40.8334 69.1429 40.8334 68.8335V37.8168L49.1069 29.5433C50.5241 28.116 51.3178 26.1852 51.3143 24.1739C51.3107 22.1626 50.5102 20.2347 49.088 18.8124C47.6658 17.3902 45.7379 16.5896 43.7265 16.5859C41.7152 16.5823 39.7844 17.376 38.3571 18.7932L35 22.1504L31.643 18.7932C30.2157 17.376 28.2849 16.5823 26.2736 16.5859C24.2622 16.5896 22.3343 17.3902 20.9121 18.8124C19.4899 20.2347 18.6894 22.1626 18.6858 24.1739C18.6822 26.1852 19.476 28.116 20.8932 29.5433ZM38.5 67.6669H29.2961L31.4936 46.7891C31.52 46.5372 31.4637 46.2836 31.3332 46.0666L28 40.5104V32.6669C28.6187 32.6676 29.2117 32.9137 29.6492 33.3511C30.0866 33.7885 30.3327 34.3816 30.3334 35.0002V37.3335C30.3334 37.643 30.4563 37.9397 30.6751 38.1585C30.8939 38.3773 31.1906 38.5002 31.5001 38.5002C32.1187 38.5009 32.7117 38.747 33.1492 39.1844C33.5866 39.6218 33.8327 40.2149 33.8334 40.8335V42.0002C33.8334 42.2309 33.9018 42.4565 34.03 42.6484C34.1582 42.8402 34.3404 42.9898 34.5536 43.0781C34.7668 43.1664 35.0013 43.1895 35.2277 43.1445C35.454 43.0995 35.6619 42.9883 35.825 42.8252L38.5 40.15V67.6669ZM26.268 18.9002C26.9601 18.8983 27.6457 19.0337 28.2851 19.2986C28.9245 19.5634 29.505 19.9525 29.993 20.4433L34.1751 24.6252C34.2834 24.7335 34.412 24.8195 34.5536 24.8781C34.6951 24.9367 34.8468 24.9669 35 24.9669C35.1533 24.9669 35.305 24.9367 35.4465 24.8781C35.5881 24.8195 35.7167 24.7335 35.825 24.6252L40.0071 20.4433C40.4959 19.9522 41.0767 19.5624 41.7163 19.2962C42.3559 19.03 43.0418 18.8925 43.7346 18.8917C44.4274 18.8909 45.1136 19.0268 45.7538 19.2916C46.3941 19.5564 46.9758 19.9448 47.4657 20.4347C47.9556 20.9246 48.344 21.5063 48.6088 22.1466C48.8735 22.7868 49.0094 23.473 49.0086 24.1658C49.0078 24.8586 48.8703 25.5445 48.6041 26.1841C48.3378 26.8237 47.948 27.4045 47.457 27.8933L38.8417 36.5085L35.9437 39.4067C35.7013 38.6574 35.274 37.9814 34.7013 37.4409C34.1285 36.9005 33.4288 36.5131 32.6667 36.3146V35.0002C32.6653 33.7629 32.1732 32.5768 31.2983 31.7019C30.4235 30.827 29.2373 30.3349 28 30.3335H26.8334C26.5959 30.3338 26.3641 30.4065 26.169 30.542C25.9739 30.6775 25.8248 30.8694 25.7417 31.0919L22.5431 27.8933C21.8063 27.1566 21.3046 26.2179 21.1013 25.196C20.8979 24.1741 21.0022 23.1149 21.401 22.1523C21.7997 21.1896 22.4749 20.3669 23.3412 19.788C24.2075 19.2091 25.2261 18.9002 26.268 18.9002Z" fill="#1F1F1F"/>
<path d="M64.5804 37.333C63.8683 37.3311 63.163 37.4704 62.5052 37.7429C61.8474 38.0153 61.2501 38.4156 60.748 38.9204L58.8084 40.86L56.8688 38.9204C55.8512 37.91 54.4746 37.3441 53.0405 37.3466C51.6065 37.3491 50.2319 37.9199 49.2178 38.934C48.2038 39.948 47.6329 41.3226 47.6304 42.7566C47.6278 44.1907 48.1937 45.5673 49.2041 46.585L49.4746 46.8554V53.4324C49.4747 53.6439 49.5321 53.8514 49.6408 54.0328L52.9585 59.5621L52.5016 68.7747C52.4937 68.9326 52.5179 69.0905 52.5729 69.2388C52.6279 69.387 52.7125 69.5225 52.8214 69.6371C52.9304 69.7517 53.0616 69.8429 53.2069 69.9052C53.3522 69.9676 53.5087 69.9997 53.6668 69.9997H63.4755C63.7849 69.9997 64.0817 69.8768 64.3005 69.658C64.5193 69.4392 64.6422 69.1424 64.6422 68.833V50.3559L68.4127 46.5853C69.1707 45.8273 69.687 44.8616 69.8961 43.8102C70.1053 42.7589 69.998 41.6691 69.5877 40.6788C69.1775 39.6884 68.4828 38.8419 67.5915 38.2464C66.7002 37.6508 65.6523 37.333 64.5804 37.333ZM62.3089 67.6664H54.8928L55.3074 59.3247C55.3189 59.0938 55.2615 58.8647 55.1426 58.6664L51.8089 53.1102V45.2664C52.4275 45.2671 53.0205 45.5132 53.458 45.9506C53.8954 46.388 54.1415 46.9811 54.1422 47.5997V49.933C54.1422 50.2424 54.2651 50.5392 54.4839 50.758C54.7027 50.9768 54.9994 51.0997 55.3089 51.0997C55.9275 51.1004 56.5205 51.3465 56.958 51.7839C57.3954 52.2213 57.6415 52.8144 57.6422 53.433V54.5997C57.6422 54.8305 57.7106 55.056 57.8387 55.2479C57.9669 55.4398 58.1491 55.5894 58.3623 55.6777C58.5755 55.766 58.8101 55.7892 59.0364 55.7441C59.2628 55.6991 59.4707 55.588 59.6338 55.4248L62.3089 52.7497V67.6664ZM66.7626 44.9352L62.6209 49.0777C62.5471 49.152 62.4836 49.2358 62.4322 49.3271L59.7524 52.0062C59.51 51.257 59.0827 50.581 58.5099 50.0407C57.9372 49.5003 57.2375 49.113 56.4755 48.9145V47.5997C56.4741 46.3625 55.982 45.1763 55.1071 44.3014C54.2323 43.4266 53.0461 42.9345 51.8089 42.933H50.6422C50.4047 42.9328 50.1729 43.0055 49.9781 43.1413C49.961 43.0125 49.952 42.8827 49.9511 42.7528C49.951 42.1424 50.132 41.5456 50.4711 41.0381C50.8103 40.5305 51.2923 40.1349 51.8562 39.9014C52.4202 39.6678 53.0407 39.6067 53.6394 39.7258C54.2381 39.8449 54.788 40.1389 55.2196 40.5705L57.9834 43.3345C58.0918 43.4429 58.2204 43.5288 58.3619 43.5874C58.5035 43.6461 58.6552 43.6762 58.8084 43.6762C58.9616 43.6762 59.1133 43.6461 59.2549 43.5874C59.3965 43.5288 59.5251 43.4429 59.6334 43.3345L62.398 40.5705C62.684 40.2814 63.0244 40.0518 63.3995 39.8946C63.7746 39.7375 64.177 39.6561 64.5837 39.655C64.9904 39.6539 65.3933 39.7333 65.7692 39.8884C66.1452 40.0435 66.4867 40.2714 66.7743 40.559C67.0619 40.8466 67.2898 41.1881 67.4449 41.5641C67.6 41.94 67.6793 42.3429 67.6783 42.7496C67.6772 43.1562 67.5958 43.5587 67.4386 43.9338C67.2815 44.3089 67.0518 44.6493 66.7628 44.9353L66.7626 44.9352Z" fill="#1F1F1F"/>
<path d="M9.25212 35.4205C8.74885 34.9172 8.15138 34.518 7.49382 34.2456C6.83627 33.9733 6.1315 33.8331 5.41977 33.8331C4.70803 33.8331 4.00327 33.9733 3.34571 34.2456C2.68816 34.518 2.09069 34.9172 1.58741 35.4205C0.57101 36.4369 0 37.8154 0 39.2528C0 40.6903 0.57101 42.0688 1.58741 43.0852L1.85793 43.356V49.9331C1.85799 50.1446 1.91545 50.3521 2.02418 50.5335L5.34612 56.0699L4.8831 68.7907C4.8774 68.9473 4.90333 69.1036 4.95936 69.25C5.01539 69.3964 5.10035 69.5301 5.20918 69.6429C5.31801 69.7558 5.44848 69.8456 5.59278 69.9069C5.73708 69.9682 5.89225 69.9998 6.04904 69.9998H15.1667C15.4761 69.9998 15.7729 69.8768 15.9916 69.6581C16.2104 69.4393 16.3334 69.1425 16.3334 68.8331V56.1138L17.0026 52.7258C17.0172 52.6513 17.0246 52.5756 17.0246 52.4998V46.9114L20.7959 43.0851C21.8122 42.0686 22.3832 40.6901 22.3832 39.2527C22.3832 37.8153 21.8121 36.4367 20.7957 35.4203C19.7793 34.404 18.4007 33.833 16.9633 33.833C15.5259 33.833 14.1474 34.4041 13.131 35.4205L11.1914 37.3601L9.25212 35.4205ZM14.6917 52.3857L14.0225 55.7737C14.0077 55.8482 14.0002 55.9239 14 55.9998V67.6664H7.25902L7.69054 55.8089C7.6987 55.5832 7.64125 55.3599 7.52516 55.1662L4.19127 49.6099V41.7664C4.80988 41.7672 5.40295 42.0132 5.84037 42.4507C6.2778 42.8881 6.52387 43.4811 6.5246 44.0998V46.4331C6.5246 46.7425 6.64752 47.0393 6.86631 47.2581C7.0851 47.4768 7.38185 47.5998 7.69127 47.5998C8.30988 47.6005 8.90295 47.8466 9.34037 48.284C9.7778 48.7214 10.0239 49.3145 10.0246 49.9331V51.0998C10.0245 51.3306 10.0928 51.5563 10.221 51.7483C10.3493 51.9403 10.5315 52.0899 10.7448 52.1783C10.9581 52.2666 11.1928 52.2897 11.4192 52.2446C11.6456 52.1995 11.8535 52.0882 12.0167 51.9249L14.6917 49.2497V52.3857ZM14.781 37.0703C15.068 36.7841 15.4085 36.5573 15.7832 36.4027C16.1579 36.2481 16.5594 36.1688 16.9647 36.1694C17.37 36.17 17.7712 36.2504 18.1455 36.406C18.5197 36.5617 18.8596 36.7895 19.1458 37.0765C19.432 37.3635 19.6589 37.7041 19.8135 38.0788C19.968 38.4534 20.0473 38.8549 20.0467 39.2602C20.0461 39.6655 19.9657 40.0668 19.8101 40.441C19.6545 40.8153 19.4266 41.1552 19.1396 41.4414L15.0337 45.6078L12.135 48.5063C11.8925 47.7571 11.4652 47.0811 10.8924 46.5407C10.3196 46.0004 9.61994 45.6131 8.85793 45.4146V44.0998C8.85651 42.8625 8.36438 41.6764 7.48952 40.8015C6.61466 39.9266 5.42851 39.4345 4.19127 39.4331H3.0246C2.78709 39.4329 2.55524 39.5056 2.36033 39.6413C2.34333 39.5125 2.33432 39.3828 2.33335 39.2528C2.33339 38.6424 2.51443 38.0457 2.85359 37.5382C3.19274 37.0307 3.67477 36.6351 4.23872 36.4015C4.80268 36.168 5.42323 36.1069 6.02192 36.2259C6.6206 36.345 7.17053 36.639 7.60216 37.0706L10.3663 39.8347C10.4746 39.9431 10.6032 40.029 10.7448 40.0876C10.8863 40.1463 11.0381 40.1765 11.1913 40.1765C11.3445 40.1765 11.4962 40.1463 11.6377 40.0876C11.7793 40.029 11.9079 39.9431 12.0162 39.8347L14.781 37.0703Z" fill="#1F1F1F"/>
<path d="M37.3335 35C37.4867 35.0002 37.6385 34.9702 37.78 34.9115C37.9216 34.8529 38.0502 34.7668 38.1584 34.6583L39.3251 33.4917C39.5439 33.2729 39.6668 32.9761 39.6668 32.6667C39.6668 32.3573 39.5439 32.0605 39.3251 31.8417C39.1063 31.6229 38.8096 31.5 38.5001 31.5C38.1907 31.5 37.8939 31.6229 37.6751 31.8417L36.5085 33.0084C36.3453 33.1715 36.2342 33.3794 36.1892 33.6057C36.1441 33.8321 36.1673 34.0666 36.2556 34.2798C36.3439 34.493 36.4934 34.6752 36.6853 34.8034C36.8771 34.9316 37.1027 35 37.3335 35Z" fill="#1F1F1F"/>
<path d="M42 30.3337C42.1532 30.3339 42.305 30.3038 42.4466 30.2452C42.5881 30.1865 42.7167 30.1005 42.8249 29.992L45.1583 27.6587C45.3771 27.4399 45.5 27.1431 45.5 26.8337C45.5 26.5243 45.3771 26.2275 45.1583 26.0087C44.9395 25.7899 44.6427 25.667 44.3333 25.667C44.0239 25.667 43.7271 25.7899 43.5083 26.0087L41.175 28.342C41.0118 28.5052 40.9007 28.7131 40.8557 28.9394C40.8107 29.1657 40.8338 29.4003 40.9221 29.6135C41.0104 29.8267 41.1599 30.0089 41.3518 30.1371C41.5436 30.2653 41.7692 30.3337 42 30.3337Z" fill="#1F1F1F"/>
<path d="M17.8852 0C17.5758 0 17.279 0.122916 17.0602 0.341709C16.8414 0.560501 16.7185 0.857247 16.7185 1.16667V3.5C16.7185 3.80942 16.8414 4.10616 17.0602 4.32496C17.279 4.54375 17.5758 4.66667 17.8852 4.66667C18.1946 4.66667 18.4913 4.54375 18.7101 4.32496C18.9289 4.10616 19.0518 3.80942 19.0518 3.5V1.16667C19.0518 0.857247 18.9289 0.560501 18.7101 0.341709C18.4913 0.122916 18.1946 0 17.8852 0Z" fill="#1F1F1F"/>
<path d="M12.25 5.09403L14.2706 6.2607C14.4034 6.33851 14.5502 6.3893 14.7026 6.41015C14.8551 6.43099 15.0101 6.42147 15.1589 6.38215C15.3076 6.34282 15.4471 6.27446 15.5694 6.181C15.6916 6.08754 15.7941 5.97083 15.871 5.83758C15.948 5.70434 15.9978 5.55719 16.0176 5.40461C16.0374 5.25203 16.0269 5.09704 15.9866 4.94856C15.9463 4.80007 15.877 4.66103 15.7827 4.53943C15.6885 4.41783 15.5711 4.31608 15.4373 4.24003L13.4166 3.07336C13.1488 2.9211 12.8316 2.88094 12.5343 2.96166C12.237 3.04238 11.9837 3.23742 11.8297 3.50422C11.6756 3.77102 11.6334 4.08792 11.7121 4.38577C11.7908 4.68361 11.9842 4.93822 12.25 5.09403Z" fill="#1F1F1F"/>
<path d="M11.823 10.4996C11.9778 10.7676 12.2326 10.9631 12.5315 11.0432C12.8303 11.1233 13.1488 11.0813 13.4167 10.9266L15.4374 9.75997C15.5711 9.68393 15.6885 9.58217 15.7828 9.46057C15.8771 9.33898 15.9463 9.19993 15.9867 9.05145C16.027 8.90296 16.0375 8.74797 16.0177 8.59539C15.9979 8.44282 15.948 8.29567 15.8711 8.16242C15.7942 8.02918 15.6916 7.91246 15.5694 7.819C15.4472 7.72554 15.3077 7.65718 15.159 7.61786C15.0102 7.57853 14.8551 7.56901 14.7027 7.58986C14.5503 7.6107 14.4034 7.66149 14.2707 7.7393L12.25 8.90597C11.9821 9.06069 11.7866 9.3155 11.7065 9.61437C11.6264 9.91324 11.6683 10.2317 11.823 10.4996Z" fill="#1F1F1F"/>
<path d="M16.7185 12.833C16.7185 13.1424 16.8414 13.4392 17.0602 13.658C17.279 13.8768 17.5758 13.9997 17.8852 13.9997C18.1946 13.9997 18.4913 13.8768 18.7101 13.658C18.9289 13.4392 19.0518 13.1424 19.0518 12.833V10.4997C19.0518 10.1903 18.9289 9.89351 18.7101 9.67472C18.4913 9.45592 18.1946 9.33301 17.8852 9.33301C17.5758 9.33301 17.279 9.45592 17.0602 9.67472C16.8414 9.89351 16.7185 10.1903 16.7185 10.4997V12.833Z" fill="#1F1F1F"/>
<path d="M20.333 9.76005L22.3536 10.9267C22.6215 11.079 22.9386 11.1191 23.236 11.0384C23.5333 10.9577 23.7866 10.7627 23.9406 10.4959C24.0947 10.2291 24.1369 9.91215 24.0582 9.61431C23.9794 9.31646 23.7861 9.06186 23.5203 8.90605L21.4996 7.73938C21.2318 7.58711 20.9147 7.54695 20.6173 7.62767C20.32 7.70839 20.0667 7.90344 19.9127 8.17024C19.7586 8.43704 19.7164 8.75394 19.7951 9.05179C19.8739 9.34963 20.0672 9.60424 20.333 9.76005Z" fill="#1F1F1F"/>
<path d="M20.9175 6.4171C21.122 6.41706 21.3228 6.36308 21.4997 6.26062L23.5204 5.09396C23.6541 5.01791 23.7715 4.91616 23.8658 4.79456C23.9601 4.67296 24.0293 4.53391 24.0697 4.38543C24.11 4.23694 24.1205 4.08195 24.1007 3.92938C24.0809 3.7768 24.031 3.62965 23.9541 3.49641C23.8772 3.36316 23.7746 3.24645 23.6524 3.15299C23.5302 3.05953 23.3907 2.99117 23.242 2.95184C23.0932 2.91251 22.9381 2.903 22.7857 2.92384C22.6333 2.94468 22.4864 2.99547 22.3537 3.07329L20.333 4.23996C20.1105 4.36839 19.9366 4.56671 19.8383 4.80413C19.74 5.04154 19.7228 5.30477 19.7894 5.55294C19.856 5.80111 20.0027 6.02034 20.2067 6.1766C20.4107 6.33286 20.6606 6.4174 20.9175 6.4171Z" fill="#1F1F1F"/>
<path d="M59.6458 29.1663C59.6458 29.4758 59.7687 29.7725 59.9875 29.9913C60.2063 30.2101 60.503 30.333 60.8124 30.333C61.1218 30.333 61.4186 30.2101 61.6374 29.9913C61.8562 29.7725 61.9791 29.4758 61.9791 29.1663V27.9997C61.9791 27.6903 61.8562 27.3935 61.6374 27.1747C61.4186 26.9559 61.1218 26.833 60.8124 26.833C60.503 26.833 60.2063 26.9559 59.9875 27.1747C59.7687 27.3935 59.6458 27.6903 59.6458 27.9997V29.1663Z" fill="#1F1F1F"/>
<path d="M55.7601 27.4163C55.9148 27.6843 56.1696 27.8798 56.4685 27.9599C56.7673 28.0399 57.0858 27.998 57.3537 27.8433L58.3641 27.26C58.4978 27.1839 58.6152 27.0822 58.7095 26.9606C58.8037 26.839 58.873 26.6999 58.9133 26.5514C58.9537 26.403 58.9642 26.248 58.9444 26.0954C58.9245 25.9428 58.8747 25.7957 58.7978 25.6624C58.7209 25.5292 58.6183 25.4125 58.4961 25.319C58.3739 25.2255 58.2344 25.1572 58.0856 25.1179C57.9369 25.0785 57.7818 25.069 57.6294 25.0899C57.4769 25.1107 57.3301 25.1615 57.1974 25.2393L56.1871 25.8226C55.9191 25.9774 55.7236 26.2322 55.6435 26.531C55.5634 26.8299 55.6054 27.1483 55.7601 27.4163Z" fill="#1F1F1F"/>
<path d="M56.187 23.177L57.1973 23.7604C57.3301 23.8382 57.4769 23.889 57.6293 23.9098C57.7818 23.9307 57.9368 23.9211 58.0856 23.8818C58.2343 23.8425 58.3738 23.7741 58.496 23.6807C58.6183 23.5872 58.7208 23.4705 58.7977 23.3373C58.8746 23.204 58.9245 23.0569 58.9443 22.9043C58.9641 22.7517 58.9536 22.5967 58.9133 22.4482C58.873 22.2997 58.8037 22.1607 58.7094 22.0391C58.6151 21.9175 58.4977 21.8158 58.364 21.7397L57.3537 21.1564C57.0858 21.0041 56.7687 20.9639 56.4713 21.0447C56.174 21.1254 55.9207 21.3204 55.7667 21.5872C55.6126 21.854 55.5704 22.1709 55.6491 22.4688C55.7279 22.7666 55.9212 23.0212 56.187 23.177Z" fill="#1F1F1F"/>
<path d="M60.8124 22.167C61.1218 22.167 61.4186 22.0441 61.6374 21.8253C61.8562 21.6065 61.9791 21.3097 61.9791 21.0003V19.8337C61.9791 19.5242 61.8562 19.2275 61.6374 19.0087C61.4186 18.7899 61.1218 18.667 60.8124 18.667C60.503 18.667 60.2063 18.7899 59.9875 19.0087C59.7687 19.2275 59.6458 19.5242 59.6458 19.8337V21.0003C59.6458 21.3097 59.7687 21.6065 59.9875 21.8253C60.2063 22.0441 60.503 22.167 60.8124 22.167Z" fill="#1F1F1F"/>
<path d="M63.8438 23.9169C64.0483 23.9169 64.2491 23.863 64.426 23.7606L65.4365 23.1772C65.5692 23.1006 65.6855 22.9987 65.7788 22.8771C65.872 22.7555 65.9405 22.6168 65.9801 22.4688C66.0198 22.3208 66.0299 22.1664 66.0099 22.0145C65.9899 21.8626 65.9402 21.7161 65.8636 21.5834C65.787 21.4507 65.685 21.3344 65.5635 21.2411C65.4419 21.1479 65.3032 21.0794 65.1552 21.0398C65.0072 21.0001 64.8528 20.99 64.7009 21.01C64.549 21.03 64.4025 21.0797 64.2698 21.1563L63.2593 21.7396C63.0367 21.868 62.8627 22.0663 62.7643 22.3038C62.666 22.5412 62.6488 22.8045 62.7154 23.0527C62.7821 23.301 62.9288 23.5202 63.1328 23.6765C63.3369 23.8328 63.5868 23.9173 63.8438 23.9169Z" fill="#1F1F1F"/>
<path d="M63.2595 27.2603L64.2699 27.8436C64.4026 27.9202 64.5491 27.9699 64.701 27.9899C64.853 28.0099 65.0073 27.9998 65.1553 27.9601C65.3033 27.9204 65.442 27.852 65.5636 27.7587C65.6852 27.6655 65.7871 27.5491 65.8638 27.4164C65.9404 27.2837 65.9901 27.1373 66.0101 26.9853C66.0301 26.8334 66.0199 26.6791 65.9803 26.5311C65.9406 26.3831 65.8722 26.2443 65.7789 26.1228C65.6856 26.0012 65.5693 25.8992 65.4366 25.8226L64.4261 25.2393C64.1581 25.0846 63.8397 25.0427 63.5408 25.1228C63.2419 25.2029 62.987 25.3984 62.8323 25.6664C62.6776 25.9344 62.6357 26.2529 62.7158 26.5518C62.7959 26.8507 62.9915 27.1055 63.2595 27.2603Z" fill="#1F1F1F"/>
</svg>
