<svg width="75" height="70" viewBox="0 0 75 70" fill="none" xmlns="http://www.w3.org/2000/svg">
<path d="M9.23262e-06 1.36057V23.7791C-0.00261566 24.4671 0.554797 25.027 1.24513 25.0298H11.2476C11.9379 25.0273 12.4953 24.4671 12.4927 23.7791V21.1636C14.4296 22.3254 17.5715 23.7791 21.2501 23.7791H32.4977C35.246 23.7791 37.5001 21.5449 37.5001 18.8058C37.5001 16.0668 35.246 13.8205 32.4977 13.8205H24.9952V12.5698C24.9952 11.8582 25.5384 11.329 26.2525 11.329H66.2526C66.9668 11.329 67.4977 11.8582 67.4977 12.5698V34.9982C67.4977 35.7099 66.9668 36.239 66.2526 36.239H26.2525C25.5384 36.239 24.9952 35.7099 24.9952 34.9982V27.5236C24.959 25.8991 22.5314 25.8991 22.4952 27.5236V34.9982C22.4952 37.047 24.1966 38.7329 26.2525 38.7329H66.2526C68.3085 38.7329 69.9978 37.047 69.9978 34.9982V12.5698C69.9978 10.521 68.3085 8.83745 66.2526 8.83745H47.9005L39.4752 2.83997C35.0923 -0.279998 29.3908 -0.452034 25.2076 0.53337L12.4927 3.52852V1.36057C12.4902 0.676361 11.9341 0.122428 11.2476 0.119697H1.18531C0.486075 0.18373 -0.000615808 0.720101 9.23262e-06 1.36057ZM38.025 4.86423L43.6012 8.83745H26.2525C24.1966 8.83745 22.4952 10.521 22.4952 12.5698V15.0614C22.4953 15.7512 23.0579 16.3096 23.7501 16.3096L32.4977 16.312C33.9043 16.312 35.0001 17.4041 35.0001 18.806C35.0001 20.2078 33.9043 21.2975 32.4977 21.2975H21.2501C17.013 21.2975 13.5022 18.9188 12.4927 18.1709V6.08082L25.8082 2.9519C29.8714 1.9971 34.7422 2.52523 38.025 4.86423ZM2.50001 2.61122H10.0025V22.5382H2.50001V2.61122ZM39.8707 13.8205C38.242 13.9401 38.3677 16.3606 40.0001 16.312H58.8949C59.3749 17.9304 60.4088 19.2866 62.4953 19.9095V27.6861C60.6021 28.1372 59.3865 29.6377 58.9064 31.256H33.5798C33.2993 30.028 32.33 28.3472 29.9977 27.675C30.0416 25.6998 27.4624 25.9425 27.4977 27.5235V28.7643C27.4952 29.4561 28.0584 30.0176 28.7525 30.015C30.148 30.015 31.2428 31.1156 31.2428 32.5064C31.2453 33.1944 31.8073 33.75 32.4977 33.7474H59.9953C60.6856 33.7499 61.2474 33.1943 61.2502 32.5064C61.2502 31.1157 62.3572 30.015 63.7526 30.015C64.443 30.0125 65.0004 29.4523 64.9978 28.7643V18.8057C65.0015 18.1168 64.4439 17.5554 63.7526 17.5526C62.3572 17.5526 61.2502 16.4519 61.2502 15.0612C61.2477 14.3732 60.6856 13.8176 59.9953 13.8202H40.0001C39.9571 13.8178 39.9139 13.818 39.8707 13.8205ZM46.2477 18.8058C43.5011 18.8058 41.2452 21.0418 41.2452 23.7791C41.2452 26.5164 43.5011 28.7645 46.2477 28.7645C48.9943 28.7645 51.2477 26.5164 51.2477 23.7791C51.2477 21.0418 48.9943 18.8058 46.2477 18.8058ZM46.2477 21.2974C47.6432 21.2974 48.7477 22.3883 48.7477 23.7791C48.7477 25.1699 47.6432 26.2706 46.2477 26.2706C44.8522 26.2706 43.7452 25.1699 43.7452 23.7791C43.7452 22.3884 44.8522 21.2974 46.2477 21.2974ZM48.5329 69.4579L48.496 69.4674L62.4951 66.4382V68.628C62.4926 69.3207 63.0573 69.8825 63.7524 69.8785H73.7451C74.4392 69.881 75.0026 69.3197 75 68.628V46.2095C75.0037 45.5167 74.4402 44.9537 73.7451 44.9564H63.7524C63.0563 44.9526 62.491 45.5158 62.4951 46.2095V48.8178C60.5573 47.657 57.4223 46.2095 53.7499 46.2095H40.0001C37.2517 46.2095 35.0001 48.4533 35.0001 51.1924C35.0001 53.9314 37.2517 56.1778 40.0001 56.1778H51.2477C52.916 56.1778 52.916 53.6839 51.2477 53.6839H40.0001C38.5935 53.6839 37.5001 52.5942 37.5001 51.1924C37.5001 49.7906 38.5935 48.701 40.0001 48.701H53.7502C57.9813 48.701 61.4819 51.0633 62.4953 51.8129V63.8908L47.964 67.0319C47.9517 67.0344 47.9394 67.0366 47.9272 67.0413C45.7126 67.5932 39.9044 68.1016 35.6981 65.1094L17.512 53.5011C16.4093 52.7973 15.8222 51.2502 16.5477 50.068C17.4127 48.6584 19.2268 48.9919 20.2513 49.2773L30.9349 52.2529C32.5629 52.7421 33.255 50.2781 31.6088 49.8539L20.9251 46.8782C18.1013 46.0916 15.6423 46.6917 14.3846 48.8223C12.9904 51.1837 13.9089 54.1612 16.1644 55.6008L34.2711 67.1556C39.4014 70.8055 45.7477 70.1521 48.5329 69.4579ZM64.9977 47.4506H72.5002V67.3874H64.9977C65.0341 60.7587 64.9977 54.1199 64.9977 47.4506Z" fill="#1F1F1F"/>
</svg>
