<svg width="62" height="70" viewBox="0 0 62 70" fill="none" xmlns="http://www.w3.org/2000/svg">
<path d="M35.7479 13.5044C36.0071 13.5044 36.2557 13.4028 36.4391 13.2219C36.6224 13.041 36.7254 12.7957 36.7254 12.5398C36.7254 12.284 36.6224 12.0387 36.4391 11.8578C36.2557 11.6769 36.0071 11.5753 35.7479 11.5753H31.9776V9.64619C31.9776 9.39038 31.8746 9.14504 31.6913 8.96415C31.508 8.78326 31.2594 8.68164 31.0001 8.68164C30.7409 8.68164 30.4923 8.78326 30.3089 8.96415C30.1256 9.14504 30.0227 9.39038 30.0227 9.64619V11.5753H28.6346C27.7458 11.5753 26.8934 11.9237 26.2649 12.5439C25.6364 13.1641 25.2833 14.0052 25.2833 14.8823C25.2833 15.7594 25.6364 16.6006 26.2649 17.2207C26.8934 17.8409 27.7458 18.1894 28.6346 18.1894H30.0227V20.9452H26.2524C25.9931 20.9452 25.7445 21.0468 25.5612 21.2277C25.3779 21.4086 25.2749 21.6539 25.2749 21.9098C25.2749 22.1656 25.3779 22.4109 25.5612 22.5918C25.7445 22.7727 25.9931 22.8743 26.2524 22.8743H30.0227V24.8034C30.0227 25.0592 30.1256 25.3046 30.3089 25.4855C30.4923 25.6663 30.7409 25.768 31.0001 25.768C31.2594 25.768 31.508 25.6663 31.6913 25.4855C31.8746 25.3046 31.9776 25.0592 31.9776 24.8034V22.8743H33.3656C34.2545 22.8743 35.1069 22.5259 35.7354 21.9057C36.3639 21.2855 36.717 20.4444 36.717 19.5673C36.717 18.6902 36.3639 17.849 35.7354 17.2289C35.1069 16.6087 34.2545 16.2603 33.3656 16.2603H31.9776V13.5044H35.7479ZM33.3656 18.1894C33.736 18.1894 34.0912 18.3345 34.353 18.5929C34.6149 18.8513 34.762 19.2018 34.762 19.5673C34.762 19.9327 34.6149 20.2832 34.353 20.5416C34.0912 20.8 33.736 20.9452 33.3656 20.9452H31.9776V18.1894H33.3656ZM30.0227 16.2603H28.6346C28.2643 16.2603 27.9091 16.1151 27.6472 15.8567C27.3854 15.5983 27.2382 15.2478 27.2382 14.8823C27.2382 14.5169 27.3854 14.1664 27.6472 13.908C27.9091 13.6496 28.2643 13.5044 28.6346 13.5044H30.0227V16.2603Z" fill="#1F1F1F"/>
<path d="M58.2297 26.5952H45.6454C47.3541 23.9951 48.3201 20.9882 48.4418 17.8916C48.5635 14.7949 47.8363 11.7233 46.3369 9.00034C44.8374 6.27742 42.6213 4.00413 39.9221 2.42011C37.2228 0.83608 34.1405 0 31 0C27.8595 0 24.7772 0.83608 22.0779 2.42011C19.3787 4.00413 17.1626 6.27742 15.6631 9.00034C14.1637 11.7233 13.4365 14.7949 13.5582 17.8916C13.6799 20.9882 14.6459 23.9951 16.3546 26.5952H3.77027C2.77033 26.5952 1.81135 26.9872 1.10429 27.6849C0.397224 28.3826 0 29.3289 0 30.3156V34.4494C0 35.4361 0.397224 36.3824 1.10429 37.0802C1.81135 37.7779 2.77033 38.1698 3.77027 38.1698H5.58559V66.2796C5.58559 67.2663 5.98281 68.2126 6.68987 68.9103C7.39694 69.608 8.35592 70 9.35586 70H52.6441C53.6441 70 54.6031 69.608 55.3101 68.9103C56.0172 68.2126 56.4144 67.2663 56.4144 66.2796V38.1698H58.2297C59.2297 38.1698 60.1887 37.7779 60.8957 37.0802C61.6028 36.3824 62 35.4361 62 34.4494V30.3156C62 29.3289 61.6028 28.3826 60.8957 27.6849C60.1887 26.9872 59.2297 26.5952 58.2297 26.5952ZM15.5 17.2253C15.4994 14.7912 16.0875 12.392 17.2155 10.2272C18.3435 8.06249 19.9788 6.19466 21.9855 4.779C23.9922 3.36333 26.3123 2.44073 28.753 2.08786C31.1938 1.73499 33.6846 1.96205 36.0185 2.75017C38.3524 3.53829 40.462 4.8647 42.1719 6.61916C43.8818 8.37362 45.1427 10.5055 45.8497 12.8375C46.5567 15.1695 46.6895 17.6344 46.2369 20.0273C45.7844 22.4201 44.7596 24.6718 43.2478 26.5952H39.451C41.3754 24.9051 42.7337 22.6778 43.346 20.2085C43.9582 17.7392 43.7954 15.1446 42.8791 12.7687C41.9628 10.3929 40.3363 8.3479 38.2153 6.90501C36.0943 5.46212 33.579 4.68945 31.0028 4.68945C28.4266 4.68945 25.9113 5.46212 23.7903 6.90501C21.6693 8.3479 20.0428 10.3929 19.1265 12.7687C18.2102 15.1446 18.0474 17.7392 18.6596 20.2085C19.2719 22.6778 20.6302 24.9051 22.5546 26.5952H18.7522C16.6465 23.9135 15.5026 20.6178 15.5 17.2253ZM25.9548 26.5952C23.836 25.4843 22.1546 23.706 21.1783 21.5433C20.2019 19.3805 19.9866 16.9577 20.5668 14.6604C21.1469 12.363 22.489 10.3231 24.3797 8.86532C26.2703 7.40755 28.6007 6.61564 31 6.61564C33.3993 6.61564 35.7297 7.40755 37.6203 8.86532C39.511 10.3231 40.8531 12.363 41.4332 14.6604C42.0134 16.9577 41.7981 19.3805 40.8217 21.5433C39.8454 23.706 38.164 25.4843 36.0452 26.5952H25.9548ZM54.4595 66.2796C54.4595 66.5148 54.4125 66.7478 54.3213 66.9651C54.2301 67.1824 54.0963 67.3799 53.9278 67.5462C53.7592 67.7126 53.5591 67.8445 53.3388 67.9345C53.1186 68.0246 52.8825 68.0709 52.6441 68.0709H9.35586C8.8744 68.0709 8.41267 67.8822 8.07223 67.5462C7.7318 67.2103 7.54054 66.7547 7.54054 66.2796V38.1698H54.4595V66.2796ZM60.045 34.4494C60.045 34.9245 59.8538 35.3801 59.5134 35.7161C59.1729 36.052 58.7112 36.2407 58.2297 36.2407H3.77027C3.28882 36.2407 2.82709 36.052 2.48665 35.7161C2.14621 35.3801 1.95496 34.9245 1.95496 34.4494V30.3156C1.95495 29.8406 2.14621 29.3849 2.48665 29.049C2.82709 28.7131 3.28882 28.5243 3.77027 28.5243H58.2297C58.7112 28.5243 59.1729 28.7131 59.5134 29.049C59.8538 29.3849 60.045 29.8406 60.045 30.3156V34.4494Z" fill="#1F1F1F"/>
<path d="M14.5224 51.2602H16.7566V55.8762C16.7566 56.132 16.8596 56.3774 17.0429 56.5583C17.2262 56.7391 17.4749 56.8408 17.7341 56.8408H44.2656C44.5249 56.8408 44.7735 56.7391 44.9568 56.5583C45.1401 56.3774 45.2431 56.132 45.2431 55.8762V51.2602H47.4774C47.7366 51.2602 47.9852 51.1585 48.1685 50.9776C48.3518 50.7968 48.4548 50.5514 48.4548 50.2956C48.4548 50.0398 48.3518 49.7945 48.1685 49.6136C47.9852 49.4327 47.7366 49.3311 47.4774 49.3311H14.5224C14.2632 49.3311 14.0145 49.4327 13.8312 49.6136C13.6479 49.7945 13.5449 50.0398 13.5449 50.2956C13.5449 50.5514 13.6479 50.7968 13.8312 50.9776C14.0145 51.1585 14.2632 51.2602 14.5224 51.2602ZM43.2882 54.9117H18.7116V51.3291H43.2882V54.9117Z" fill="#1F1F1F"/>
</svg>
