<svg width="75" height="70" viewBox="0 0 75 70" fill="none" xmlns="http://www.w3.org/2000/svg">
<path d="M68.4927 7.01503L67.8822 6.40454C63.6945 2.21841 58.1099 -0.0611339 52.1581 0.00124725C46.7158 0.0535244 41.563 2.04313 37.4991 5.63371C33.4364 2.05704 28.2438 0.103019 22.726 0.103019C16.7259 0.103019 11.1104 2.41332 6.91406 6.60838L6.50742 7.01473C2.31094 11.2099 0 16.7875 0 22.7203C0 28.6532 2.31108 34.2306 6.50728 38.4248L11.0291 42.9451L10.1941 43.8657C8.10132 46.1734 8.18774 49.7066 10.391 51.9092C11.5337 53.0516 13.1065 53.6673 14.7205 53.6129C14.5765 55.2739 15.16 56.9781 16.4596 58.2374C17.5431 59.2873 18.9596 59.8603 20.4627 59.8603C20.7992 59.8603 21.1355 59.8316 21.4668 59.7741C21.5338 61.1314 22.0837 62.4675 23.1136 63.5052C24.1944 64.5941 25.6252 65.1895 27.1544 65.1895C27.6712 65.1895 28.1878 65.1212 28.6862 64.9839C28.8431 66.1462 29.358 67.2696 30.232 68.1895C31.3198 69.3345 32.7888 69.9774 34.3683 69.9993C35.9285 70.0232 37.4481 69.4061 38.5534 68.306L56.1524 50.761C56.7255 50.188 56.7255 49.2591 56.1523 48.6862C55.5791 48.1131 54.6498 48.1134 54.0766 48.6864L36.4825 66.2263C35.6143 67.0906 34.2454 67.3115 33.1509 66.7581C32.1243 66.2392 31.4892 65.1245 31.5877 63.9769C31.6419 63.3455 31.9112 62.7454 32.335 62.2755L43.0742 50.5333C43.6211 49.9353 43.5795 49.0072 42.9813 48.4604C42.3831 47.9133 41.4546 47.9552 40.9077 48.5531L29.1977 61.3566C28.6825 61.9198 27.9785 62.2387 27.2152 62.2543C26.447 62.2693 25.7354 61.9798 25.1977 61.4383C24.1586 60.3913 24.1242 58.7184 25.1194 57.6299L37.3126 44.4671C37.865 43.8741 37.8321 42.9455 37.2388 42.3933C36.6456 41.8411 35.7167 41.8744 35.1645 42.4673L22.5328 56.0271C22.0118 56.5865 21.3038 56.9053 20.5396 56.9249C19.7738 56.9426 19.0519 56.6622 18.5029 56.1301C17.3977 55.0592 17.3468 53.3319 18.3867 52.1976L31.2335 38.1874C31.7812 37.5901 31.741 36.662 31.1435 36.1144C30.5458 35.5667 29.6174 35.6073 29.0697 36.2046L16.6551 49.7435C15.5547 50.9428 13.6192 50.9854 12.4671 49.834C11.3722 48.7391 11.3291 46.9832 12.3693 45.8363L35.2255 20.6339L40.3257 24.8863C42.8704 27.0079 46.674 26.8101 48.9847 24.4358C50.2104 23.1763 50.8666 21.4472 50.7847 19.6917C50.7028 17.9364 49.8886 16.2756 48.5509 15.1354L39.711 7.6015C43.2029 4.6258 47.6704 2.97885 52.2814 2.93463C52.218 2.93463 52.345 2.93404 52.2814 2.93463C57.3674 2.93463 62.2257 4.89905 65.8066 8.47879L66.4172 9.08927C70.0591 12.7299 72.0648 17.5706 72.0648 22.7197C72.0648 27.8688 70.0591 32.709 66.4172 36.3491L63.3054 39.46C62.7322 40.033 62.7324 40.9619 63.3056 41.5349C63.8788 42.1078 64.8081 42.1078 65.3812 41.5349L68.4929 38.4241C72.6889 34.2306 75 28.6534 75 22.7203C75 16.7875 72.6891 11.2099 68.4927 7.01503ZM47.8522 19.8289C47.897 20.7907 47.5519 21.7002 46.8804 22.3902C45.6328 23.6721 43.5795 23.7787 42.2057 22.6333L36.024 17.4791C35.4196 16.9754 34.5252 17.0374 33.9965 17.6204L13.0031 40.7685L8.58281 36.3498C4.94106 32.7098 2.9354 27.8694 2.9354 22.7204C2.9354 17.5715 4.94106 12.7307 8.58281 9.09L8.98945 8.68365C12.6313 5.04284 17.5097 3.03772 22.7257 3.03772C27.9417 3.03772 32.8201 5.04284 36.462 8.68365C36.4786 8.7002 46.646 17.3691 46.646 17.3691C47.3791 17.9937 47.8072 18.8673 47.8522 19.8289Z" fill="#1F1F1F"/>
<path d="M58.643 44.0975C58.0898 44.6875 58.1196 45.6141 58.7095 46.1673C59.2993 46.7206 60.2261 46.6907 60.7793 46.1007C61.3326 45.5107 61.3027 44.5841 60.7128 44.0309C60.1229 43.4778 59.1961 43.5075 58.643 44.0975Z" fill="#1F1F1F"/>
</svg>
