<svg width="45" height="46" viewBox="0 0 45 46" fill="none" xmlns="http://www.w3.org/2000/svg">
<path d="M13.7109 17.9297L10.459 17.5781C9.46289 21.3281 9.46289 25.0781 10.459 28.8281L13.7109 28.5645C15.3516 28.4473 16.5234 29.1504 17.2266 30.6738L19.9512 37.6172C20.5371 39.3164 20.0977 40.6934 18.6328 41.748L13.0957 45.1758C12.5098 45.5273 11.8945 45.7031 11.25 45.7031C10.3711 45.7031 9.58008 45.3516 8.87695 44.6484C6.00586 41.7188 3.80859 38.4375 2.28516 34.8047C0.761719 31.1133 0 27.2168 0 23.1152C0 19.0723 0.761719 15.2051 2.28516 11.5137C3.80859 7.88086 6.00586 4.59961 8.87695 1.66992C10.166 0.556641 11.5723 0.410156 13.0957 1.23047L18.6328 4.6582C20.0977 5.71289 20.5664 7.08984 20.0391 8.78906L17.2266 15.8203C16.5234 17.2852 15.3516 17.9883 13.7109 17.9297ZM8.17383 30.8496C6.47461 25.752 6.47461 20.6836 8.17383 15.6445C8.4082 14.9414 8.90625 14.6191 9.66797 14.6777L14.0625 15.1172C14.2969 15.1172 14.4727 15 14.5898 14.7656L17.3145 7.73438C17.373 7.44141 17.2852 7.20703 17.0508 7.03125L11.5137 3.51562C11.3965 3.45703 11.2793 3.42773 11.1621 3.42773C11.0449 3.42773 10.9277 3.48633 10.8105 3.60352C8.17383 6.24023 6.18164 9.22852 4.83398 12.5684C3.42773 15.9082 2.72461 19.4238 2.72461 23.1152C2.72461 26.8652 3.42773 30.4102 4.83398 33.75C6.24023 37.0898 8.26172 40.0781 10.8984 42.7148C11.1328 42.8906 11.3672 42.9199 11.6016 42.8027L17.1387 39.2871C17.373 39.1113 17.4609 38.877 17.4023 38.584L14.5898 31.6406C14.4727 31.4062 14.2969 31.2891 14.0625 31.2891L9.66797 31.7285C8.96484 31.7871 8.4668 31.4941 8.17383 30.8496ZM35.332 3.7793C38.4375 6.12305 40.8105 8.96484 42.4512 12.3047C44.1504 15.6445 45 19.248 45 23.1152C45 27.041 44.1504 30.6738 42.4512 34.0137C40.8105 37.4121 38.4375 40.2832 35.332 42.627C35.0391 42.8027 34.7461 42.8906 34.4531 42.8906C33.9844 42.8906 33.6035 42.7148 33.3105 42.3633C32.9004 41.6016 32.9883 40.9277 33.5742 40.3418C36.3281 38.291 38.4375 35.7715 39.9023 32.7832C41.4258 29.8535 42.1875 26.6602 42.1875 23.2031C42.1875 19.7461 41.4258 16.5527 39.9023 13.623C38.4375 10.6348 36.3281 8.11523 33.5742 6.06445C32.9883 5.47852 32.9004 4.80469 33.3105 4.04297C33.8965 3.45703 34.5703 3.36914 35.332 3.7793ZM29.2676 9.4043C31.5527 10.9863 33.3398 12.9785 34.6289 15.3809C35.918 17.7832 36.5625 20.3613 36.5625 23.1152C36.5625 25.9277 35.918 28.5645 34.6289 31.0254C33.3398 33.4277 31.5527 35.4199 29.2676 37.002C29.0332 37.1777 28.7695 37.2656 28.4766 37.2656C28.0078 37.2656 27.627 37.0605 27.334 36.6504C26.9238 35.8887 27.041 35.2441 27.6855 34.7168C29.6191 33.3691 31.1133 31.6992 32.168 29.707C33.2227 27.7148 33.75 25.5469 33.75 23.2031C33.75 20.8594 33.2227 18.6914 32.168 16.6992C31.1133 14.707 29.6191 13.0371 27.6855 11.6895C27.041 11.1621 26.9238 10.5176 27.334 9.75586C27.8613 9.11133 28.5059 8.99414 29.2676 9.4043ZM23.9062 16.3477C26.6016 17.8125 28.0078 20.0977 28.125 23.2031C28.125 24.668 27.7441 26.0156 26.9824 27.2461C26.2207 28.4766 25.1953 29.4141 23.9062 30.0586C23.7305 30.1758 23.5254 30.2344 23.291 30.2344C22.7051 30.2344 22.2949 29.9707 22.0605 29.4434C21.709 28.6816 21.9141 28.0664 22.6758 27.5977C24.375 26.6602 25.2539 25.1953 25.3125 23.2031C25.2539 21.2695 24.375 19.8047 22.6758 18.8086C21.9141 18.3398 21.709 17.7246 22.0605 16.9629C22.4707 16.2012 23.0859 15.9961 23.9062 16.3477Z" fill="#1F1F1F"/>
</svg>
