<svg width="167" height="36" viewBox="0 0 167 36" fill="none" xmlns="http://www.w3.org/2000/svg">
<path fill-rule="evenodd" clip-rule="evenodd" d="M8.19882 15.173C9.97853 15.173 11.4323 13.6982 11.4323 11.8892C11.4323 10.0818 9.98013 8.60699 8.19882 8.60699C6.41751 8.60699 4.96531 10.0818 4.96531 11.8892C4.96691 13.6982 6.41911 15.173 8.19882 15.173Z" fill="white"/>
<path fill-rule="evenodd" clip-rule="evenodd" d="M27.0983 7.92549C28.5345 7.92549 29.7215 6.73463 29.7215 5.25984C29.7215 3.78505 28.5345 2.57959 27.0983 2.57959C25.6461 2.57959 24.4591 3.78505 24.4591 5.25984C24.4575 6.73463 25.6445 7.92549 27.0983 7.92549Z" fill="white"/>
<path fill-rule="evenodd" clip-rule="evenodd" d="M4.02912 5.84748C2.93637 9.22538 1.77972 14.1105 4.55952 16.9822C9.04234 21.6451 15.8193 15.2527 13.212 8.36873C11.9947 5.16444 9.82356 3.43655 6.69868 3.18183C9.85391 0.597305 14.3671 0.75468 16.5686 4.51547C18.1933 7.25899 18.7397 10.5428 18.0831 13.6984C16.9584 19.1384 11.1336 25.2615 5.29121 23.0403C3.27666 22.2794 1.71422 20.6619 0.980926 18.6306C-0.765235 13.7925 1.03045 9.71697 4.02912 5.84748Z" fill="#FFAC00"/>
<path fill-rule="evenodd" clip-rule="evenodd" d="M25.0821 15.2849C29.8461 12.6355 33.4695 12.5722 36 15.1259C35.5783 12.7783 35.2811 10.098 32.7362 9.17808C30.6274 8.43177 27.8172 9.14564 24.3489 11.2402C24.2706 8.14784 22.9909 5.2291 20.7719 3.11832C18.5544 0.992936 15.5877 -0.116804 12.5411 0.00974519C12.4005 0.0567956 12.244 0.105468 12.1034 0.152519C14.3048 0.374791 16.3673 1.58026 17.6949 3.83219C19.5529 7.02026 19.5529 8.81304 19.6472 12.2704C19.7414 15.7132 20.7719 17.6942 25.0821 15.2849Z" fill="#FF5528"/>
<path fill-rule="evenodd" clip-rule="evenodd" d="M34.0781 25.3715C33.094 26.6403 31.7983 27.75 30.2039 28.7024C32.9997 25.9734 34.8114 23.3727 35.6549 20.866C35.8418 20.2949 35.4201 20.0256 35.0926 20.5334C33.7969 22.5793 31.891 24.5473 29.4084 26.1957C31.6418 23.8156 33.6723 21.0575 35.4983 17.884C36.7333 15.7586 34.9679 14.8225 33.749 16.6153C31.4373 19.9948 29.0952 22.5631 26.6893 24.3234C28.7517 22.1185 30.3445 19.9786 31.4533 17.9311C32.2025 16.5195 31.2344 15.0918 29.8605 16.8521C28.4865 18.6449 26.7212 20.4848 24.582 22.3716C23.4733 23.2916 22.4892 23.9259 21.6617 24.2747C18.7732 25.4332 17.8035 23.2591 21.0067 21.15C25.3169 18.3107 21.8342 16.9154 19.5385 18.8023C18.4617 19.6735 14.4006 22.482 12.2295 23.6388C9.98012 24.8442 7.41919 25.2563 4.84228 24.2731C2.67116 23.4522 0.937783 21.7876 0 19.6622C1.01447 28.8614 8.69885 36 18.024 36C25.2387 36 31.4708 31.7168 34.3912 25.5321C34.5781 25.1184 34.3752 24.9902 34.0781 25.3715Z" fill="#FFAC00"/>
<path d="M51.3799 32.5391C50.295 32.5391 49.4604 32.2458 48.8763 31.6592C48.2921 31.0726 48 30.2346 48 29.1453V6.39386C48 5.30447 48.2921 4.46648 48.8763 3.87989C49.4604 3.2933 50.295 3 51.3799 3H59.5166C64.5516 3 68.4322 4.28492 71.1584 6.85475C73.9123 9.39665 75.2893 13.0279 75.2893 17.7486C75.2893 20.1229 74.9277 22.2318 74.2044 24.0754C73.509 25.8911 72.4936 27.4274 71.1584 28.6844C69.8231 29.9413 68.1819 30.905 66.2346 31.5754C64.2874 32.2179 62.048 32.5391 59.5166 32.5391H51.3799ZM54.4677 27.2179H59.1411C60.7267 27.2179 62.1037 27.0223 63.272 26.6313C64.4404 26.2402 65.414 25.6536 66.1929 24.8715C66.9718 24.0894 67.556 23.1117 67.9454 21.9385C68.3349 20.7374 68.5296 19.3408 68.5296 17.7486C68.5296 14.5642 67.7368 12.2039 66.1512 10.6676C64.5934 9.10335 62.2567 8.32123 59.1411 8.32123H54.4677V27.2179Z" fill="white"/>
<path d="M89.6189 33C87.4213 33 85.5019 32.567 83.8606 31.7011C82.2472 30.8352 80.9954 29.5922 80.1052 27.9721C79.215 26.352 78.7699 24.4385 78.7699 22.2318C78.7699 20.5838 79.0203 19.1034 79.521 17.7905C80.0217 16.4777 80.745 15.3603 81.6908 14.4385C82.6644 13.4888 83.8189 12.7765 85.1541 12.3017C86.4894 11.7989 87.9776 11.5475 89.6189 11.5475C91.8165 11.5475 93.722 11.9804 95.3355 12.8464C96.9767 13.7123 98.2424 14.9413 99.1326 16.5335C100.051 18.1257 100.51 20.0251 100.51 22.2318C100.51 23.9078 100.245 25.4022 99.7168 26.7151C99.2161 28.0279 98.4928 29.1592 97.547 30.1089C96.6012 31.0587 95.4467 31.7849 94.0837 32.2877C92.7484 32.7626 91.2602 33 89.6189 33ZM89.6189 28.2654C90.5369 28.2654 91.3297 28.0419 91.9973 27.595C92.665 27.148 93.1935 26.4916 93.5829 25.6257C93.9724 24.7318 94.1671 23.6006 94.1671 22.2318C94.1671 20.1927 93.7499 18.6983 92.9153 17.7486C92.0808 16.771 90.982 16.2821 89.6189 16.2821C88.7287 16.2821 87.9359 16.4916 87.2405 16.9106C86.5728 17.3296 86.0443 17.986 85.6549 18.8799C85.2932 19.7458 85.1124 20.8631 85.1124 22.2318C85.1124 24.2709 85.5297 25.7933 86.3642 26.7989C87.1987 27.7765 88.2836 28.2654 89.6189 28.2654Z" fill="white"/>
<path d="M107.514 32.9162C106.485 32.9162 105.692 32.6369 105.136 32.0782C104.607 31.5196 104.343 30.7235 104.343 29.6899V14.8156C104.343 13.7821 104.607 13 105.136 12.4693C105.692 11.9106 106.457 11.6313 107.431 11.6313C108.432 11.6313 109.197 11.9106 109.726 12.4693C110.254 13 110.518 13.7821 110.518 14.8156V17.2039L110.059 15.8212C110.699 14.4525 111.645 13.405 112.897 12.6788C114.177 11.9246 115.623 11.5475 117.237 11.5475C118.878 11.5475 120.227 11.8687 121.284 12.5112C122.341 13.1257 123.134 14.0754 123.662 15.3603C124.191 16.6173 124.455 18.2235 124.455 20.1788V29.6899C124.455 30.7235 124.177 31.5196 123.621 32.0782C123.092 32.6369 122.313 32.9162 121.284 32.9162C120.283 32.9162 119.504 32.6369 118.947 32.0782C118.419 31.5196 118.154 30.7235 118.154 29.6899V20.4721C118.154 19.0475 117.89 18.0279 117.362 17.4134C116.861 16.771 116.082 16.4497 115.025 16.4497C113.69 16.4497 112.619 16.8687 111.812 17.7067C111.033 18.5447 110.644 19.662 110.644 21.0587V29.6899C110.644 31.8408 109.6 32.9162 107.514 32.9162Z" fill="white"/>
<path d="M136.086 33C134.583 33 133.234 32.7067 132.038 32.1201C130.842 31.5335 129.91 30.7374 129.242 29.7318C128.575 28.7263 128.241 27.595 128.241 26.338C128.241 24.8296 128.63 23.6425 129.409 22.7765C130.188 21.8827 131.454 21.2542 133.206 20.8911C134.959 20.5 137.282 20.3045 140.175 20.3045H142.386V23.5726H140.217C138.798 23.5726 137.643 23.6564 136.753 23.824C135.891 23.9637 135.265 24.2151 134.876 24.5782C134.514 24.9413 134.333 25.4441 134.333 26.0866C134.333 26.8687 134.597 27.5112 135.126 28.014C135.682 28.5168 136.475 28.7682 137.504 28.7682C138.311 28.7682 139.02 28.5866 139.632 28.2235C140.272 27.8324 140.773 27.3156 141.135 26.6732C141.496 26.0028 141.677 25.2486 141.677 24.4106V19.5922C141.677 18.3631 141.399 17.4972 140.842 16.9944C140.286 16.4637 139.34 16.1983 138.005 16.1983C137.254 16.1983 136.433 16.2961 135.543 16.4916C134.681 16.6592 133.721 16.9525 132.664 17.3715C132.052 17.6508 131.51 17.7207 131.037 17.581C130.564 17.4134 130.202 17.1341 129.952 16.743C129.701 16.324 129.576 15.8771 129.576 15.4022C129.576 14.8994 129.715 14.4246 129.993 13.9777C130.272 13.5028 130.731 13.1536 131.37 12.9302C132.678 12.3994 133.902 12.0363 135.042 11.8408C136.211 11.6453 137.282 11.5475 138.255 11.5475C140.397 11.5475 142.15 11.8687 143.513 12.5112C144.904 13.1257 145.947 14.0894 146.642 15.4022C147.338 16.6872 147.686 18.3492 147.686 20.3883V29.6899C147.686 30.7235 147.435 31.5196 146.935 32.0782C146.434 32.6369 145.711 32.9162 144.765 32.9162C143.819 32.9162 143.082 32.6369 142.553 32.0782C142.053 31.5196 141.802 30.7235 141.802 29.6899V28.1397L142.094 28.3911C141.927 29.3408 141.566 30.1648 141.009 30.8631C140.481 31.5335 139.799 32.0642 138.965 32.4553C138.13 32.8184 137.171 33 136.086 33Z" fill="white"/>
<path d="M155.64 32.9162C154.583 32.9162 153.777 32.6369 153.22 32.0782C152.664 31.5196 152.386 30.7235 152.386 29.6899V14.8156C152.386 13.7821 152.65 13 153.179 12.4693C153.735 11.9106 154.5 11.6313 155.474 11.6313C156.475 11.6313 157.24 11.9106 157.769 12.4693C158.297 13 158.561 13.7821 158.561 14.8156V16.9944H158.144C158.478 15.3184 159.215 14.0196 160.356 13.0978C161.496 12.176 162.97 11.6592 164.779 11.5475C165.474 11.4916 166.003 11.6732 166.364 12.0922C166.754 12.4832 166.962 13.1397 166.99 14.0615C167.046 14.9274 166.865 15.6117 166.448 16.1145C166.058 16.6173 165.391 16.9246 164.445 17.0363L163.485 17.1201C161.9 17.2598 160.717 17.7207 159.938 18.5028C159.187 19.2849 158.812 20.4162 158.812 21.8966V29.6899C158.812 30.7235 158.534 31.5196 157.977 32.0782C157.449 32.6369 156.67 32.9162 155.64 32.9162Z" fill="white"/>
</svg>
